<?xml version="1.0" encoding="UTF-8" standalone="no"?>
<svg
   xmlns:dc="http://purl.org/dc/elements/1.1/"
   xmlns:cc="http://creativecommons.org/ns#"
   xmlns:rdf="http://www.w3.org/1999/02/22-rdf-syntax-ns#"
   xmlns:svg="http://www.w3.org/2000/svg"
   xmlns="http://www.w3.org/2000/svg"
   xmlns:sodipodi="http://sodipodi.sourceforge.net/DTD/sodipodi-0.dtd"
   xmlns:inkscape="http://www.inkscape.org/namespaces/inkscape"
   inkscape:version="1.0 (4035a4fb49, 2020-05-01)"
   sodipodi:docname="feature1.svg"
   id="svg8"
   version="1.1"
   viewBox="0 0 33.866667 33.866667"
   height="128"
   width="128">
  <defs
     id="defs2" />
  <sodipodi:namedview
     inkscape:snap-global="true"
     inkscape:object-paths="true"
     units="px"
     fit-margin-bottom="0"
     fit-margin-right="0"
     fit-margin-left="0"
     fit-margin-top="0"
     inkscape:window-maximized="1"
     inkscape:window-y="34"
     inkscape:window-x="0"
     inkscape:window-height="1378"
     inkscape:window-width="2560"
     inkscape:snap-page="true"
     showgrid="false"
     inkscape:document-rotation="0"
     inkscape:current-layer="layer1"
     inkscape:document-units="mm"
     inkscape:cy="-32.039403"
     inkscape:cx="-70.016864"
     inkscape:zoom="1.4"
     inkscape:pageshadow="2"
     inkscape:pageopacity="0"
     borderopacity="1.0"
     bordercolor="#666666"
     pagecolor="#232323"
     id="base" />
  <metadata
     id="metadata5">
    <rdf:RDF>
      <cc:Work
         rdf:about="">
        <dc:format>image/svg+xml</dc:format>
        <dc:type
           rdf:resource="http://purl.org/dc/dcmitype/StillImage" />
        <dc:title></dc:title>
      </cc:Work>
    </rdf:RDF>
  </metadata>
  <g
     transform="translate(0.10360264,0.10360264)"
     id="layer1"
     inkscape:groupmode="layer"
     inkscape:label="Layer 1">
    <path
       sodipodi:nodetypes="cssscscssscsc"
       d="m 3.3825471,24.284582 c 0,0 4.5443731,-0.350697 6.8200569,-0.321286 2.265749,0.02928 4.513905,0.474608 6.779749,0.495261 2.563859,0.02337 5.116503,-0.439892 7.680395,-0.420472 1.925021,0.01458 5.761149,0.403015 5.761149,0.403015 0,0 -0.240049,1.827309 -0.25595,2.746707 -0.01783,1.030876 0.180317,3.08783 0.180317,3.08783 0,0 -4.46849,-0.249388 -6.704608,-0.230887 -2.317054,0.01917 -4.625908,0.298493 -6.942373,0.354166 -2.14372,0.05152 -4.288864,0.01157 -6.432989,-0.01874 -2.3351586,-0.03301 -7.0039223,-0.177639 -7.0039223,-0.177639 0,0 0.2296617,-1.992773 0.2488197,-2.994045 0.018664,-0.975431 -0.1306443,-2.92391 -0.1306443,-2.92391 z"
       style="fill:#5485cc;fill-opacity:1;stroke:none;stroke-width:0.272364;stroke-linecap:round;stroke-linejoin:round"
       id="rect959" />
    <path
       sodipodi:nodetypes="sssssssss"
       d="m 20.427658,13.87294 c 0.04773,1.360848 -0.299497,1.685599 -0.928184,2.399578 -0.986445,1.120271 -1.997098,0.784249 -3.017656,0.894394 -1.141466,0.123195 -1.285924,-0.415364 -1.951916,-1.094678 -0.930592,-0.949208 -0.952618,-1.661517 -0.980041,-2.687635 -0.04194,-1.569306 0.504831,-1.94695 1.177517,-2.619636 0.672686,-0.672686 1.678792,-0.749407 2.705275,-0.751407 1.573798,-0.0031 2.05929,0.443101 2.529622,1.270023 0.66664,1.172065 0.4294,1.563507 0.465383,2.589361 z"
       style="fill:#5485cc;fill-opacity:1;stroke:none;stroke-width:0.725104;stroke-linecap:round;stroke-linejoin:round"
       id="path963" />
    <rect
       style="fill:#000000;fill-opacity:1;stroke:none;stroke-width:0.585999;stroke-linecap:round;stroke-linejoin:round"
       id="rect983"
       width="33.866665"
       height="33.866665"
       x="33.763065"
       y="-0.10360264" />
    <rect
       style="fill:#1a1a1a;stroke:none;stroke-width:0.464252;stroke-linecap:round;stroke-linejoin:round"
       id="rect985"
       width="26.830547"
       height="26.830547"
       x="37.281124"
       y="3.4144561" />
    <path
       id="path987"
       style="fill:#5485cc;fill-opacity:1;stroke:none;stroke-width:0.272364;stroke-linecap:round;stroke-linejoin:round"
       d="m 43.199078,3.5326321 c 0,0 0.350697,4.544373 0.321286,6.8200569 -0.02928,2.265749 -0.474608,4.513905 -0.495261,6.779749 -0.02337,2.563859 0.439892,5.116503 0.420472,7.680395 -0.01458,1.925021 -0.403015,5.761149 -0.403015,5.761149 0,0 -1.827309,-0.240049 -2.746707,-0.25595 -1.030876,-0.01783 -3.08783,0.180317 -3.08783,0.180317 0,0 0.249388,-4.46849 0.230887,-6.704608 -0.01917,-2.317054 -0.298493,-4.625908 -0.354166,-6.942373 -0.05152,-2.14372 -0.01157,-4.288864 0.01874,-6.432989 0.03301,-2.3351589 0.177639,-7.0039229 0.177639,-7.0039229 0,0 1.992773,0.229662 2.994045,0.24882 0.975431,0.01866 2.92391,-0.130644 2.92391,-0.130644 z"
       sodipodi:nodetypes="cssscscssscsc" />
    <path
       id="path989"
       style="fill:#5485cc;fill-opacity:1;stroke:none;stroke-width:0.725104;stroke-linecap:round;stroke-linejoin:round"
       d="m 54.069688,9.5305381 c 0.04773,1.3608479 -0.299497,1.6855989 -0.928184,2.3995779 -0.986445,1.120271 -1.997098,0.784249 -3.017656,0.894394 -1.141466,0.123195 -1.285924,-0.415364 -1.951916,-1.094678 -0.930592,-0.949208 -0.952618,-1.661517 -0.980041,-2.6876349 -0.04194,-1.569306 0.504831,-1.94695 1.177517,-2.619636 0.672686,-0.672686 1.678792,-0.749407 2.705275,-0.751407 1.573798,-0.0031 2.05929,0.443101 2.529622,1.270023 0.66664,1.172065 0.4294,1.563507 0.465383,2.589361 z"
       sodipodi:nodetypes="sssssssss" />
    <path
       sodipodi:nodetypes="cssscscssscsc"
       d="m 58.452076,3.2036528 c 0,0 -0.947559,4.5606705 -0.310752,6.9580492 0.581721,2.189995 -0.186759,4.342504 -0.166106,6.608348 0.02337,2.563859 0.210941,5.149912 0.230361,7.713804 0.01458,1.925021 0.403015,5.761149 0.403015,5.761149 0,0 1.827309,-0.240049 2.746707,-0.25595 1.030876,-0.01783 3.08783,0.180317 3.08783,0.180317 0,0 -0.249388,-4.46849 -0.230887,-6.704608 0.01917,-2.317054 0.321518,-4.625469 0.354166,-6.942373 0.02975,-2.111026 0.132063,-4.337456 -0.01874,-6.432989 -0.167631,-2.3293686 -0.177639,-7.0039232 -0.177639,-7.0039232 0,0 -1.992773,0.229662 -2.994045,0.24882 -0.975431,0.01866 -2.92391,-0.130644 -2.92391,-0.130644 z"
       style="fill:#5485cc;fill-opacity:1;stroke:none;stroke-width:0.272364;stroke-linecap:round;stroke-linejoin:round"
       id="path991" />
    <path
       sodipodi:nodetypes="sssssssss"
       d="m 54.292056,22.914548 c 0.04773,1.360848 -0.299497,1.685599 -0.928184,2.399578 -0.986445,1.120271 -1.997098,0.784249 -3.017656,0.894394 -1.141466,0.123195 -1.285924,-0.415364 -1.951916,-1.094678 -0.930592,-0.949208 -0.952618,-1.661517 -0.980041,-2.687635 -0.04194,-1.569306 0.504831,-1.94695 1.177517,-2.619636 0.672686,-0.672686 1.678792,-0.749407 2.705275,-0.751407 1.573798,-0.0031 2.05929,0.443101 2.529622,1.270023 0.66664,1.172065 0.4294,1.563507 0.465383,2.589361 z"
       style="fill:#5485cc;fill-opacity:1;stroke:none;stroke-width:0.725104;stroke-linecap:round;stroke-linejoin:round"
       id="path993" />
    <rect
       y="-0.10360264"
       x="67.62973"
       height="33.866665"
       width="33.866665"
       id="rect995"
       style="fill:#000000;fill-opacity:1;stroke:none;stroke-width:0.585999;stroke-linecap:round;stroke-linejoin:round" />
    <rect
       y="3.4144561"
       x="71.147789"
       height="26.830547"
       width="26.830547"
       id="rect997"
       style="fill:#1a1a1a;stroke:none;stroke-width:0.464252;stroke-linecap:round;stroke-linejoin:round" />
    <path
       sodipodi:nodetypes="cscssssssscscsssccssscscsssssscsccs"
       d="m 71.007601,3.2624176 c 0,0 0.229923,1.99286 0.249081,2.994134 0.01866,0.975431 -0.130742,2.923852 -0.130742,2.923852 0,0 -0.01419,4.9245074 0.307627,6.6415814 0.26589,1.41866 3.823885,2.43011 4.846753,2.472537 0.649675,0.02695 0.0016,-2.828047 0.734761,-5.068114 0.452852,-1.383619 0.789179,-3.6606226 1.069091,-3.7354284 0.590618,-0.157841 1.628077,-0.3481446 2.522913,-0.4355511 1.397841,-0.1365395 2.629178,0.6152217 4.085469,0.6019471 2.563859,-0.023371 5.149849,-0.211055 7.71374,-0.230476 1.925022,-0.01458 5.760887,-0.403077 5.760887,-0.403077 0,0 -0.239895,-1.827204 -0.255796,-2.746602 -0.01783,-1.030875 0.18035,-3.088182 0.18035,-3.088182 0,0 -4.468382,0.249494 -6.704499,0.230994 -2.317054,-0.01918 -4.625825,-0.321336 -6.942729,-0.353986 -2.111026,-0.02975 -4.337149,-0.132199 -6.432682,0.0186 -2.329369,0.16763 -7.004224,0.177766 -7.004224,0.177766 z M 71.33678,30.351203 c 0,0 4.668548,0.144758 7.003707,0.177768 2.144125,0.03031 4.289479,0.07012 6.433199,0.0186 2.316465,-0.05567 4.625158,-0.334812 6.942211,-0.353984 2.236118,-0.01849 6.704501,0.230995 6.704501,0.230995 0,0 -0.198181,-2.057307 -0.180351,-3.088185 0.0159,-0.919398 0.256316,-2.746602 0.256316,-2.746602 0,0 -3.836387,-0.388496 -5.761407,-0.403075 -2.563891,-0.01942 -5.116291,0.444016 -7.68015,0.420645 -2.265844,-0.02066 -5.523979,-0.253143 -6.182029,-0.654491 -0.144796,-0.08831 -1.121219,-1.972299 -1.551459,-4.003028 -0.631622,-2.981247 -1.394947,-6.236407 -1.709987,-6.227029 -1.477502,0.04398 -3.52515,-5.232738 -4.44096,2.987467 -0.15762,1.198092 0.284748,7.722933 0.284748,7.722933 0,0 0.148885,1.94842 0.130225,2.923852 C 71.566184,28.35834 71.33678,30.3512 71.33678,30.3512 Z"
       style="fill:#5485cc;fill-opacity:1;stroke:none;stroke-width:0.272365;stroke-linecap:round;stroke-linejoin:round"
       id="path999" />
    <path
       id="path1005"
       style="fill:#5485cc;fill-opacity:1;stroke:none;stroke-width:0.725104;stroke-linecap:round;stroke-linejoin:round"
       d="m 84.511626,12.83017 c 1.360848,-0.04773 1.685599,0.299497 2.399578,0.928185 1.120271,0.986445 0.784249,1.997098 0.894394,3.017656 0.123195,1.141466 -0.415364,1.285924 -1.094678,1.951916 -0.949208,0.930592 -1.661517,0.952618 -2.687635,0.980041 -1.569306,0.04194 -1.94695,-0.504831 -2.619636,-1.177517 -0.672686,-0.672686 -0.749407,-1.678792 -0.751407,-2.705275 -0.0031,-1.573798 0.443101,-2.05929 1.270023,-2.529622 1.172065,-0.666641 1.563507,-0.429401 2.589361,-0.465384 z"
       sodipodi:nodetypes="sssssssss" />
  </g>
</svg>
