<?xml version="1.0" encoding="UTF-8" standalone="no"?>
<svg
   xmlns:dc="http://purl.org/dc/elements/1.1/"
   xmlns:cc="http://creativecommons.org/ns#"
   xmlns:rdf="http://www.w3.org/1999/02/22-rdf-syntax-ns#"
   xmlns:svg="http://www.w3.org/2000/svg"
   xmlns="http://www.w3.org/2000/svg"
   xmlns:sodipodi="http://sodipodi.sourceforge.net/DTD/sodipodi-0.dtd"
   xmlns:inkscape="http://www.inkscape.org/namespaces/inkscape"
   width="128"
   height="128"
   viewBox="0 0 33.866667 33.866667"
   version="1.1"
   id="svg8"
   sodipodi:docname="feature1.svg"
   inkscape:version="1.0 (4035a4fb49, 2020-05-01)">
  <defs
     id="defs2" />
  <sodipodi:namedview
     id="base"
     pagecolor="#232323"
     bordercolor="#666666"
     borderopacity="1.0"
     inkscape:pageopacity="0"
     inkscape:pageshadow="2"
     inkscape:zoom="3.959798"
     inkscape:cx="112.99154"
     inkscape:cy="63.303968"
     inkscape:document-units="mm"
     inkscape:current-layer="g9183"
     inkscape:document-rotation="0"
     showgrid="false"
     inkscape:snap-page="true"
     inkscape:window-width="2560"
     inkscape:window-height="1378"
     inkscape:window-x="0"
     inkscape:window-y="34"
     inkscape:window-maximized="1"
     fit-margin-top="0"
     fit-margin-left="0"
     fit-margin-right="0"
     fit-margin-bottom="0"
     units="px"
     inkscape:object-paths="true"
     inkscape:snap-global="true" />
  <metadata
     id="metadata5">
    <rdf:RDF>
      <cc:Work
         rdf:about="">
        <dc:format>image/svg+xml</dc:format>
        <dc:type
           rdf:resource="http://purl.org/dc/dcmitype/StillImage" />
        <dc:title />
      </cc:Work>
    </rdf:RDF>
  </metadata>
  <g
     inkscape:label="Layer 1"
     inkscape:groupmode="layer"
     id="layer1"
     transform="translate(0.10360264,0.10360264)">
    <rect
       y="-0.10360264"
       x="33.763065"
       height="33.866665"
       width="33.866665"
       id="rect983"
       style="fill:#000000;fill-opacity:1;stroke:none;stroke-width:0.585999;stroke-linecap:round;stroke-linejoin:round" />
    <rect
       y="3.4144561"
       x="37.281124"
       height="26.830547"
       width="26.830547"
       id="rect985"
       style="fill:#1a1a1a;stroke:none;stroke-width:0.464252;stroke-linecap:round;stroke-linejoin:round" />
    <path
       sodipodi:nodetypes="cssscscssscsc"
       d="m 43.199078,3.5326321 c 0,0 0.350697,4.544373 0.321286,6.8200569 -0.02928,2.265749 -0.474608,4.513905 -0.495261,6.779749 -0.02337,2.563859 0.439892,5.116503 0.420472,7.680395 -0.01458,1.925021 -0.403015,5.761149 -0.403015,5.761149 0,0 -1.827309,-0.240049 -2.746707,-0.25595 -1.030876,-0.01783 -3.08783,0.180317 -3.08783,0.180317 0,0 0.249388,-4.46849 0.230887,-6.704608 -0.01917,-2.317054 -0.298493,-4.625908 -0.354166,-6.942373 -0.05152,-2.14372 -0.01157,-4.288864 0.01874,-6.432989 0.03301,-2.3351589 0.177639,-7.0039229 0.177639,-7.0039229 0,0 1.992773,0.229662 2.994045,0.24882 0.975431,0.01866 2.92391,-0.130644 2.92391,-0.130644 z"
       style="fill:#5485cc;fill-opacity:1;stroke:none;stroke-width:0.272364;stroke-linecap:round;stroke-linejoin:round"
       id="path987" />
    <path
       sodipodi:nodetypes="sssssssss"
       d="m 54.069688,9.5305381 c 0.04773,1.3608479 -0.299497,1.6855989 -0.928184,2.3995779 -0.986445,1.120271 -1.997098,0.784249 -3.017656,0.894394 -1.141466,0.123195 -1.285924,-0.415364 -1.951916,-1.094678 -0.930592,-0.949208 -0.952618,-1.661517 -0.980041,-2.6876349 -0.04194,-1.569306 0.504831,-1.94695 1.177517,-2.619636 0.672686,-0.672686 1.678792,-0.749407 2.705275,-0.751407 1.573798,-0.0031 2.05929,0.443101 2.529622,1.270023 0.66664,1.172065 0.4294,1.563507 0.465383,2.589361 z"
       style="fill:#5485cc;fill-opacity:1;stroke:none;stroke-width:0.725104;stroke-linecap:round;stroke-linejoin:round"
       id="path989" />
    <path
       id="path991"
       style="fill:#5485cc;fill-opacity:1;stroke:none;stroke-width:0.272364;stroke-linecap:round;stroke-linejoin:round"
       d="m 58.452076,3.2036528 c 0,0 -0.947559,4.5606705 -0.310752,6.9580492 0.581721,2.189995 -0.186759,4.342504 -0.166106,6.608348 0.02337,2.563859 0.210941,5.149912 0.230361,7.713804 0.01458,1.925021 0.403015,5.761149 0.403015,5.761149 0,0 1.827309,-0.240049 2.746707,-0.25595 1.030876,-0.01783 3.08783,0.180317 3.08783,0.180317 0,0 -0.249388,-4.46849 -0.230887,-6.704608 0.01917,-2.317054 0.321518,-4.625469 0.354166,-6.942373 0.02975,-2.111026 0.132063,-4.337456 -0.01874,-6.432989 -0.167631,-2.3293686 -0.177639,-7.0039232 -0.177639,-7.0039232 0,0 -1.992773,0.229662 -2.994045,0.24882 -0.975431,0.01866 -2.92391,-0.130644 -2.92391,-0.130644 z"
       sodipodi:nodetypes="cssscscssscsc" />
    <path
       id="path993"
       style="fill:#5485cc;fill-opacity:1;stroke:none;stroke-width:0.725104;stroke-linecap:round;stroke-linejoin:round"
       d="m 54.292056,22.914548 c 0.04773,1.360848 -0.299497,1.685599 -0.928184,2.399578 -0.986445,1.120271 -1.997098,0.784249 -3.017656,0.894394 -1.141466,0.123195 -1.285924,-0.415364 -1.951916,-1.094678 -0.930592,-0.949208 -0.952618,-1.661517 -0.980041,-2.687635 -0.04194,-1.569306 0.504831,-1.94695 1.177517,-2.619636 0.672686,-0.672686 1.678792,-0.749407 2.705275,-0.751407 1.573798,-0.0031 2.05929,0.443101 2.529622,1.270023 0.66664,1.172065 0.4294,1.563507 0.465383,2.589361 z"
       sodipodi:nodetypes="sssssssss" />
    <rect
       style="fill:#000000;fill-opacity:1;stroke:none;stroke-width:0.585999;stroke-linecap:round;stroke-linejoin:round"
       id="rect995"
       width="33.866665"
       height="33.866665"
       x="67.62973"
       y="-0.10360264" />
    <rect
       style="fill:#1a1a1a;stroke:none;stroke-width:0.464252;stroke-linecap:round;stroke-linejoin:round"
       id="rect997"
       width="26.830547"
       height="26.830547"
       x="71.147789"
       y="3.4144561" />
    <path
       id="path999"
       style="fill:#5485cc;fill-opacity:1;stroke:none;stroke-width:0.272365;stroke-linecap:round;stroke-linejoin:round"
       d="m 71.007601,3.2624176 c 0,0 0.229923,1.99286 0.249081,2.994134 0.01866,0.975431 -0.130742,2.923852 -0.130742,2.923852 0,0 -0.01419,4.9245074 0.307627,6.6415814 0.26589,1.41866 3.823885,2.43011 4.846753,2.472537 0.649675,0.02695 0.0016,-2.828047 0.734761,-5.068114 0.452852,-1.383619 0.789179,-3.6606226 1.069091,-3.7354284 0.590618,-0.157841 1.628077,-0.3481446 2.522913,-0.4355511 1.397841,-0.1365395 2.629178,0.6152217 4.085469,0.6019471 2.563859,-0.023371 5.149849,-0.211055 7.71374,-0.230476 1.925022,-0.01458 5.760887,-0.403077 5.760887,-0.403077 0,0 -0.239895,-1.827204 -0.255796,-2.746602 -0.01783,-1.030875 0.18035,-3.088182 0.18035,-3.088182 0,0 -4.468382,0.249494 -6.704499,0.230994 -2.317054,-0.01918 -4.625825,-0.321336 -6.942729,-0.353986 -2.111026,-0.02975 -4.337149,-0.132199 -6.432682,0.0186 -2.329369,0.16763 -7.004224,0.177766 -7.004224,0.177766 z M 71.33678,30.351203 c 0,0 4.668548,0.144758 7.003707,0.177768 2.144125,0.03031 4.289479,0.07012 6.433199,0.0186 2.316465,-0.05567 4.625158,-0.334812 6.942211,-0.353984 2.236118,-0.01849 6.704501,0.230995 6.704501,0.230995 0,0 -0.198181,-2.057307 -0.180351,-3.088185 0.0159,-0.919398 0.256316,-2.746602 0.256316,-2.746602 0,0 -3.836387,-0.388496 -5.761407,-0.403075 -2.563891,-0.01942 -5.116291,0.444016 -7.68015,0.420645 -2.265844,-0.02066 -5.523979,-0.253143 -6.182029,-0.654491 -0.144796,-0.08831 -1.121219,-1.972299 -1.551459,-4.003028 -0.631622,-2.981247 -1.394947,-6.236407 -1.709987,-6.227029 -1.477502,0.04398 -3.52515,-5.232738 -4.44096,2.987467 -0.15762,1.198092 0.284748,7.722933 0.284748,7.722933 0,0 0.148885,1.94842 0.130225,2.923852 C 71.566184,28.35834 71.33678,30.3512 71.33678,30.3512 Z"
       sodipodi:nodetypes="cscssssssscscsssccssscscsssssscsccs" />
    <path
       sodipodi:nodetypes="sssssssss"
       d="m 84.511626,12.83017 c 1.360848,-0.04773 1.685599,0.299497 2.399578,0.928185 1.120271,0.986445 0.784249,1.997098 0.894394,3.017656 0.123195,1.141466 -0.415364,1.285924 -1.094678,1.951916 -0.949208,0.930592 -1.661517,0.952618 -2.687635,0.980041 -1.569306,0.04194 -1.94695,-0.504831 -2.619636,-1.177517 -0.672686,-0.672686 -0.749407,-1.678792 -0.751407,-2.705275 -0.0031,-1.573798 0.443101,-2.05929 1.270023,-2.529622 1.172065,-0.666641 1.563507,-0.429401 2.589361,-0.465384 z"
       style="fill:#5485cc;fill-opacity:1;stroke:none;stroke-width:0.725104;stroke-linecap:round;stroke-linejoin:round"
       id="path1005" />
    <g
       id="g9183">
      <path
         id="path9172"
         style="fill:#5485cc;fill-opacity:1;stroke:none;stroke-width:0.725104;stroke-linecap:round;stroke-linejoin:round"
         d="m 27.764165,7.135153 c -1.154664,-0.7217589 -1.60952,-0.583427 -2.542188,-0.395957 -1.463405,0.294151 -1.677729,1.337413 -2.283396,2.166169 -0.677423,0.926941 -0.283246,1.321325 -0.02794,2.237748 0.356742,1.28052 0.962607,1.65575 1.83754,2.192558 1.33809,0.820974 1.938525,0.536278 2.857431,0.290058 0.918906,-0.24622 1.488401,-1.079173 2.003375,-1.967133 C 30.39857,10.297197 30.254895,9.653648 29.773926,8.832867 29.092208,7.669508 28.634589,7.679243 27.764165,7.135153 Z"
         sodipodi:nodetypes="sssssssss" />
      <path
         id="path9191"
         style="fill:#5485cc;fill-opacity:1;stroke:none;stroke-width:0.272364;stroke-linecap:round;stroke-linejoin:round"
         d="m 13.496776,6.8516391 c 0,0 0.322826,0.071135 -3.876811,0.074789 -4.22018,0.182732 -5.069383,0.258921 -5.505199,3.1497219 0.191895,4.326528 2.830455,2.842675 6.524291,2.856944 0,0 1.888439,0.131713 2.745691,0.08102 4.671446,-0.27599 6.494529,0.881168 6.80144,-2.917278 C 19.789877,6.3944924 16.995382,6.8281051 13.496776,6.8516401 Z"
         sodipodi:nodetypes="ccccccc" />
      <path
         sodipodi:nodetypes="sssssssss"
         d="m 6.5185479,20.364322 c 1.154664,-0.721759 1.60952,-0.583427 2.542188,-0.395957 1.4634051,0.294151 1.6777291,1.337413 2.2833961,2.166169 0.677423,0.926941 0.283246,1.321325 0.02794,2.237748 -0.356742,1.28052 -0.962607,1.65575 -1.8375401,2.192558 -1.33809,0.820974 -1.938525,0.536278 -2.857431,0.290058 -0.918906,-0.24622 -1.488401,-1.079173 -2.003375,-1.967133 -0.789583,-1.361399 -0.645908,-2.004948 -0.164939,-2.825729 0.681718,-1.163359 1.139337,-1.153624 2.009761,-1.697714 z"
         style="fill:#5485cc;fill-opacity:1;stroke:none;stroke-width:0.725104;stroke-linecap:round;stroke-linejoin:round"
         id="path9193" />
      <path
         sodipodi:nodetypes="ccccccc"
         d="m 20.785937,20.080808 c 0,0 -0.322826,0.07113 3.876811,0.07479 4.22018,0.182732 5.069383,0.258921 5.505199,3.149722 -0.191895,4.326528 -2.830455,2.842675 -6.524291,2.856944 0,0 -1.888439,0.131713 -2.745691,0.08102 -4.671446,-0.27599 -6.494529,0.881168 -6.80144,-2.917278 0.396311,-3.702344 3.190806,-3.268731 6.689412,-3.245196 z"
         style="fill:#5485cc;fill-opacity:1;stroke:none;stroke-width:0.272364;stroke-linecap:round;stroke-linejoin:round"
         id="path9195" />
    </g>
  </g>
</svg>
