<?xml version="1.0" encoding="UTF-8" standalone="no"?>
<svg
   xmlns:dc="http://purl.org/dc/elements/1.1/"
   xmlns:cc="http://creativecommons.org/ns#"
   xmlns:rdf="http://www.w3.org/1999/02/22-rdf-syntax-ns#"
   xmlns:svg="http://www.w3.org/2000/svg"
   xmlns="http://www.w3.org/2000/svg"
   xmlns:sodipodi="http://sodipodi.sourceforge.net/DTD/sodipodi-0.dtd"
   xmlns:inkscape="http://www.inkscape.org/namespaces/inkscape"
   width="128"
   height="128"
   viewBox="0 0 33.866667 33.866667"
   version="1.1"
   id="svg8"
   sodipodi:docname="feature2.svg"
   inkscape:version="1.0 (4035a4fb49, 2020-05-01)">
  <defs
     id="defs2" />
  <sodipodi:namedview
     id="base"
     pagecolor="#232323"
     bordercolor="#666666"
     borderopacity="1.0"
     inkscape:pageopacity="0"
     inkscape:pageshadow="2"
     inkscape:zoom="3.959798"
     inkscape:cx="152.92445"
     inkscape:cy="68.703644"
     inkscape:document-units="mm"
     inkscape:current-layer="layer1"
     inkscape:document-rotation="0"
     showgrid="false"
     inkscape:snap-page="true"
     inkscape:window-width="2560"
     inkscape:window-height="1378"
     inkscape:window-x="0"
     inkscape:window-y="34"
     inkscape:window-maximized="1"
     fit-margin-top="0"
     fit-margin-left="0"
     fit-margin-right="0"
     fit-margin-bottom="0"
     units="px"
     inkscape:object-paths="true"
     inkscape:snap-global="true" />
  <metadata
     id="metadata5">
    <rdf:RDF>
      <cc:Work
         rdf:about="">
        <dc:format>image/svg+xml</dc:format>
        <dc:type
           rdf:resource="http://purl.org/dc/dcmitype/StillImage" />
        <dc:title />
      </cc:Work>
    </rdf:RDF>
  </metadata>
  <g
     inkscape:label="Layer 1"
     inkscape:groupmode="layer"
     id="layer1"
     transform="translate(0.10360264,0.10360264)">
    <path
       sodipodi:nodetypes="csscccssccc"
       d="m 9.5240109,6.4332075 c 0.076247,1.3442597 0.1432228,2.8721397 0.1296869,3.9194815 -0.029283,2.265749 -0.474608,4.513905 -0.495261,6.779749 -0.02337,2.563859 0.439892,5.116503 0.420472,7.680395 -0.1827322,4.22018 0.8099292,5.604613 -3.149722,5.505199 -4.8103168,0.890955 -2.8426737,-2.830455 -2.856943,-6.524291 -0.01917,-2.317054 -0.298493,-4.625908 -0.354166,-6.942373 -0.05152,-2.14372 -0.01157,-4.288864 0.01874,-6.432989 0.012136,-0.858524 0.066366,-2.5575796 0.095942,-3.6989794 0.064545,-2.7156244 1.4494072,-3.0979593 3.0757419,-3.0561235 2.223069,-0.048504 3.0147065,1.0118387 3.1155091,2.7699314 z"
       style="fill:#5485cc;fill-opacity:1;stroke:none;stroke-width:0.272364;stroke-linecap:round;stroke-linejoin:round"
       id="path987" />
    <path
       sodipodi:nodetypes="sssssssss"
       d="m 20.203022,9.5305381 c 0.04773,1.3608479 -0.299497,1.6855989 -0.928184,2.3995779 -0.986445,1.120271 -1.997098,0.784249 -3.017656,0.894394 -1.141466,0.123195 -1.285924,-0.415364 -1.951916,-1.094678 -0.930592,-0.949208 -0.952618,-1.661517 -0.980041,-2.6876349 -0.04194,-1.569306 0.504831,-1.94695 1.177517,-2.619636 0.672686,-0.672686 1.678792,-0.749407 2.705275,-0.751407 1.573798,-0.0031 2.05929,0.443101 2.529622,1.270023 0.66664,1.172065 0.4294,1.563507 0.465383,2.589361 z"
       style="fill:#5485cc;fill-opacity:1;stroke:none;stroke-width:0.725104;stroke-linecap:round;stroke-linejoin:round"
       id="path989" />
    <path
       id="path991"
       style="fill:#5485cc;fill-opacity:1;stroke:none;stroke-width:0.272364;stroke-linecap:round;stroke-linejoin:round"
       d="m 24.274658,10.161702 c 0.581721,2.189995 -0.186759,4.342504 -0.166106,6.608348 0.02337,2.563859 0.210941,5.149912 0.230361,7.713804 0.182732,4.22018 -0.809929,5.604613 3.149722,5.505199 4.095953,0.470636 2.842674,-2.830455 2.856943,-6.524291 0.01917,-2.317054 0.321518,-4.625469 0.354166,-6.942373 0.02975,-2.111026 0.132063,-4.337456 -0.01874,-6.432989 C 30.224939,5.4201567 31.486014,3.2451807 27.50932,3.3342968 23.244144,2.3620887 24.099751,6.9846665 24.274658,10.161702 Z"
       sodipodi:nodetypes="cscccsccc" />
    <path
       id="path993"
       style="fill:#5485cc;fill-opacity:1;stroke:none;stroke-width:0.725104;stroke-linecap:round;stroke-linejoin:round"
       d="m 20.42539,22.914548 c 0.04773,1.360848 -0.299497,1.685599 -0.928184,2.399578 -0.986445,1.120271 -1.997098,0.784249 -3.017656,0.894394 -1.141466,0.123195 -1.285924,-0.415364 -1.951916,-1.094678 -0.930592,-0.949208 -0.952618,-1.661517 -0.980041,-2.687635 -0.04194,-1.569306 0.504831,-1.94695 1.177517,-2.619636 0.672686,-0.672686 1.678792,-0.749407 2.705275,-0.751407 1.573798,-0.0031 2.05929,0.443101 2.529622,1.270023 0.66664,1.172065 0.4294,1.563507 0.465383,2.589361 z"
       sodipodi:nodetypes="sssssssss" />
    <rect
       style="fill:#000000;fill-opacity:1;stroke:none;stroke-width:0.585999;stroke-linecap:round;stroke-linejoin:round"
       id="rect995"
       width="33.866665"
       height="33.866665"
       x="33.763065"
       y="-0.10360264" />
    <rect
       style="fill:#1a1a1a;stroke:none;stroke-width:0.464252;stroke-linecap:round;stroke-linejoin:round"
       id="rect997"
       width="26.830547"
       height="26.830547"
       x="37.281124"
       y="3.4144561" />
    <path
       id="path999"
       style="fill:#5485cc;fill-opacity:1;stroke:none;stroke-width:0.272365;stroke-linecap:round;stroke-linejoin:round"
       d="m 37.140935,3.2624176 c 0,0 0.229923,1.99286 0.249081,2.994134 0.01866,0.975431 -0.130742,2.923852 -0.130742,2.923852 0,0 -0.01419,4.9245074 0.307627,6.6415814 0.26589,1.41866 3.823885,2.43011 4.846753,2.472537 0.649675,0.02695 0.0016,-2.828047 0.734761,-5.068114 0.452852,-1.383619 0.789179,-3.6606226 1.069091,-3.7354284 0.590618,-0.157841 1.628077,-0.3481446 2.522913,-0.4355511 1.397841,-0.1365395 2.629178,0.6152217 4.085469,0.6019471 2.563859,-0.023371 5.149849,-0.211055 7.71374,-0.230476 1.925022,-0.01458 5.760887,-0.403077 5.760887,-0.403077 0,0 -0.239895,-1.827204 -0.255796,-2.746602 -0.01783,-1.030875 0.18035,-3.088182 0.18035,-3.088182 0,0 -4.468382,0.249494 -6.704499,0.230994 -2.317054,-0.01918 -4.625825,-0.321336 -6.942729,-0.353986 -2.111026,-0.02975 -4.337149,-0.132199 -6.432682,0.0186 -2.329369,0.16763 -7.004224,0.177766 -7.004224,0.177766 z m 0.329179,27.0887854 c 0,0 4.668548,0.144758 7.003707,0.177768 2.144125,0.03031 4.289479,0.07012 6.433199,0.0186 2.316465,-0.05567 4.625158,-0.334812 6.942211,-0.353984 2.236118,-0.01849 6.704501,0.230995 6.704501,0.230995 0,0 -0.198181,-2.057307 -0.180351,-3.088185 0.0159,-0.919398 0.256316,-2.746602 0.256316,-2.746602 0,0 -3.836387,-0.388496 -5.761407,-0.403075 -2.563891,-0.01942 -5.116291,0.444016 -7.68015,0.420645 -2.265844,-0.02066 -5.523979,-0.253143 -6.182029,-0.654491 -0.144796,-0.08831 -1.121219,-1.972299 -1.551459,-4.003028 -0.631622,-2.981247 -1.394947,-6.236407 -1.709987,-6.227029 -1.477502,0.04398 -3.52515,-5.232738 -4.44096,2.987467 -0.15762,1.198092 0.284748,7.722933 0.284748,7.722933 0,0 0.148885,1.94842 0.130225,2.923852 -0.01916,1.001271 -0.248564,2.994131 -0.248564,2.994131 z"
       sodipodi:nodetypes="cscssssssscscsssccssscscsssssscsccs" />
    <path
       sodipodi:nodetypes="sssssssss"
       d="m 50.64496,12.83017 c 1.360848,-0.04773 1.685599,0.299497 2.399578,0.928185 1.120271,0.986445 0.784249,1.997098 0.894394,3.017656 0.123195,1.141466 -0.415364,1.285924 -1.094678,1.951916 -0.949208,0.930592 -1.661517,0.952618 -2.687635,0.980041 -1.569306,0.04194 -1.94695,-0.504831 -2.619636,-1.177517 -0.672686,-0.672686 -0.749407,-1.678792 -0.751407,-2.705275 -0.0031,-1.573798 0.443101,-2.05929 1.270023,-2.529622 1.172065,-0.666641 1.563507,-0.429401 2.589361,-0.465384 z"
       style="fill:#5485cc;fill-opacity:1;stroke:none;stroke-width:0.725104;stroke-linecap:round;stroke-linejoin:round"
       id="path1005" />
  </g>
</svg>
