<?xml version="1.0" encoding="UTF-8" standalone="no"?>
<svg
   xmlns:dc="http://purl.org/dc/elements/1.1/"
   xmlns:cc="http://creativecommons.org/ns#"
   xmlns:rdf="http://www.w3.org/1999/02/22-rdf-syntax-ns#"
   xmlns:svg="http://www.w3.org/2000/svg"
   xmlns="http://www.w3.org/2000/svg"
   xmlns:sodipodi="http://sodipodi.sourceforge.net/DTD/sodipodi-0.dtd"
   xmlns:inkscape="http://www.inkscape.org/namespaces/inkscape"
   inkscape:version="1.0 (4035a4fb49, 2020-05-01)"
   sodipodi:docname="seo.svg"
   id="svg8"
   version="1.1"
   viewBox="0 0 54.407719 54.407719"
   height="54.407719mm"
   width="54.407719mm">
  <defs
     id="defs2" />
  <sodipodi:namedview
     inkscape:window-maximized="1"
     inkscape:window-y="34"
     inkscape:window-x="0"
     inkscape:window-height="1378"
     inkscape:window-width="2560"
     fit-margin-bottom="0"
     fit-margin-right="0"
     fit-margin-left="0"
     fit-margin-top="0"
     showgrid="false"
     inkscape:document-rotation="0"
     inkscape:current-layer="layer1"
     inkscape:document-units="mm"
     inkscape:cy="84.994662"
     inkscape:cx="126.91809"
     inkscape:zoom="2.8"
     inkscape:pageshadow="2"
     inkscape:pageopacity="0"
     borderopacity="1.0"
     bordercolor="#666666"
     pagecolor="#000000"
     id="base" />
  <metadata
     id="metadata5">
    <rdf:RDF>
      <cc:Work
         rdf:about="">
        <dc:format>image/svg+xml</dc:format>
        <dc:type
           rdf:resource="http://purl.org/dc/dcmitype/StillImage" />
        <dc:title></dc:title>
      </cc:Work>
    </rdf:RDF>
  </metadata>
  <g
     transform="translate(-8.1754189,-76.584099)"
     id="layer1"
     inkscape:groupmode="layer"
     inkscape:label="Layer 1">
    <g
       style="font-style:normal;font-variant:normal;font-weight:normal;font-stretch:normal;font-size:8.1166px;line-height:1.25;font-family:Comfortaa;-inkscape-font-specification:'Comfortaa, Normal';font-variant-ligatures:normal;font-variant-caps:normal;font-variant-numeric:normal;font-variant-east-asian:normal;letter-spacing:0px;word-spacing:0px;fill:#5485cc;fill-opacity:1;stroke:none;stroke-width:0.202915"
       id="text925"
       aria-label="#1">
      <path
         id="path927"
         style="font-style:normal;font-variant:normal;font-weight:normal;font-stretch:normal;font-size:8.1166px;font-family:Comfortaa;-inkscape-font-specification:'Comfortaa, Normal';font-variant-ligatures:normal;font-variant-caps:normal;font-variant-numeric:normal;font-variant-east-asian:normal;fill:#5485cc;fill-opacity:1;stroke-width:0.202915"
         d="m 21.122167,86.475601 q 0.137982,0 0.211032,0.07305 0.07305,0.06493 0.06493,0.178566 -0.0081,0.129865 -0.105515,0.202915 -0.0974,0.06493 -0.267848,0.06493 h -0.641212 l -0.243498,1.396056 h 0.657445 q 0.137982,0 0.202915,0.07305 0.06493,0.06493 0.06493,0.170449 0,0.105515 -0.0974,0.194798 -0.08928,0.08117 -0.275965,0.08117 h -0.665561 l -0.292198,1.680136 q -0.03247,0.146099 -0.129865,0.235382 -0.08928,0.08117 -0.235382,0.08117 -0.129865,0 -0.202915,-0.08117 -0.06493,-0.08928 -0.03247,-0.235382 l 0.284081,-1.680136 h -1.57462 l -0.292198,1.680136 q -0.02435,0.129866 -0.121749,0.227265 -0.0974,0.08928 -0.235381,0.08928 -0.129866,0 -0.202915,-0.08117 -0.06493,-0.08117 -0.04058,-0.235382 l 0.292197,-1.680136 h -0.681794 q -0.129866,0 -0.202915,-0.06493 -0.06493,-0.06493 -0.05682,-0.170448 0.0081,-0.137983 0.105515,-0.211032 0.0974,-0.07305 0.243498,-0.07305 h 0.706145 l 0.235381,-1.396056 h -0.673678 q -0.146099,0 -0.219148,-0.06493 -0.07305,-0.06493 -0.07305,-0.178566 0,-0.129865 0.0974,-0.202915 0.0974,-0.07305 0.267848,-0.07305 h 0.71426 l 0.292198,-1.631437 q 0.02435,-0.137982 0.121749,-0.227264 0.0974,-0.0974 0.235381,-0.0974 0.129866,0 0.194799,0.08928 0.07305,0.08928 0.0487,0.227265 l -0.292197,1.639553 h 1.582737 l 0.292197,-1.631437 q 0.01623,-0.137982 0.113633,-0.227264 0.105516,-0.0974 0.243498,-0.0974 0.154215,0 0.202915,0.0974 0.05682,0.08928 0.03247,0.219148 l -0.284081,1.639553 z m -1.590854,1.915518 0.243498,-1.396056 h -1.582737 l -0.235381,1.396056 z" />
      <path
         id="path929"
         style="font-style:normal;font-variant:normal;font-weight:normal;font-stretch:normal;font-size:8.1166px;font-family:Comfortaa;-inkscape-font-specification:'Comfortaa, Normal';font-variant-ligatures:normal;font-variant-caps:normal;font-variant-numeric:normal;font-variant-east-asian:normal;fill:#5485cc;fill-opacity:1;stroke-width:0.202915"
         d="m 23.703238,90.907265 q -0.129866,0 -0.227265,-0.08928 -0.08928,-0.08928 -0.08928,-0.227265 v -5.27579 l -0.81166,0.284081 q -0.08928,0.04058 -0.162332,0.04058 -0.137983,0 -0.227265,-0.08928 -0.08928,-0.08928 -0.08928,-0.219149 0,-0.0974 0.04058,-0.178565 0.0487,-0.08117 0.162332,-0.121749 l 1.249957,-0.43018 q 0.04058,-0.01623 0.08117,-0.02435 0.0487,-0.01623 0.08117,-0.01623 0.137982,0 0.219148,0.0974 0.08928,0.08928 0.08928,0.219148 v 5.714086 q 0,0.137983 -0.08928,0.227265 -0.08928,0.08928 -0.227265,0.08928 z" />
    </g>
    <rect
       y="85.729919"
       x="28.229542"
       height="3.9234409"
       width="25.926205"
       id="rect932"
       style="fill:#5485cc;fill-opacity:0.50275421;stroke-width:0.585999;stroke-linecap:round;stroke-linejoin:round" />
    <rect
       style="fill:#5485cc;fill-opacity:0.23163354;stroke-width:0.488781;stroke-linecap:round;stroke-linejoin:round"
       id="rect934"
       width="38.052357"
       height="1.8597691"
       x="16.126818"
       y="92.816261" />
    <rect
       y="95.991264"
       x="16.126818"
       height="1.8597691"
       width="38.052357"
       id="rect936"
       style="fill:#5485cc;fill-opacity:0.23163354;stroke-width:0.488781;stroke-linecap:round;stroke-linejoin:round" />
    <rect
       style="fill:#5485cc;fill-opacity:0.23163354;stroke-width:0.488781;stroke-linecap:round;stroke-linejoin:round"
       id="rect938"
       width="38.052357"
       height="1.8597691"
       x="16.126818"
       y="99.166267" />
    <rect
       style="fill:#5485cc;fill-opacity:0.502754;stroke-width:0.585999;stroke-linecap:round;stroke-linejoin:round"
       id="rect946"
       width="25.926205"
       height="3.9234409"
       x="16.058708"
       y="106.89658" />
    <rect
       y="113.98292"
       x="16.126818"
       height="1.8597691"
       width="38.052357"
       id="rect948"
       style="fill:#5485cc;fill-opacity:0.231634;stroke-width:0.488781;stroke-linecap:round;stroke-linejoin:round" />
    <rect
       style="fill:#5485cc;fill-opacity:0.231634;stroke-width:0.488781;stroke-linecap:round;stroke-linejoin:round"
       id="rect950"
       width="38.052357"
       height="1.8597691"
       x="16.126818"
       y="117.15792" />
    <rect
       y="120.33293"
       x="16.126818"
       height="1.8597691"
       width="38.052357"
       id="rect952"
       style="fill:#5485cc;fill-opacity:0.231634;stroke-width:0.488781;stroke-linecap:round;stroke-linejoin:round" />
  </g>
</svg>
