<?xml version="1.0" encoding="UTF-8" standalone="no"?>
<svg
   xmlns:dc="http://purl.org/dc/elements/1.1/"
   xmlns:cc="http://creativecommons.org/ns#"
   xmlns:rdf="http://www.w3.org/1999/02/22-rdf-syntax-ns#"
   xmlns:svg="http://www.w3.org/2000/svg"
   xmlns="http://www.w3.org/2000/svg"
   xmlns:sodipodi="http://sodipodi.sourceforge.net/DTD/sodipodi-0.dtd"
   xmlns:inkscape="http://www.inkscape.org/namespaces/inkscape"
   inkscape:version="1.0 (4035a4fb49, 2020-05-01)"
   sodipodi:docname="thecircle-white.svg"
   id="svg8"
   version="1.1"
   viewBox="0 0 16.933333 16.933333"
   height="64"
   width="64">
  <defs
     id="defs2">
    <inkscape:path-effect
       update_on_knot_move="true"
       attempt_force_join="true"
       miter_limit="4"
       offset="0"
       unit="mm"
       linejoin_type="miter"
       lpeversion="1"
       is_visible="true"
       id="path-effect865"
       effect="offset" />
    <inkscape:path-effect
       update_on_knot_move="true"
       attempt_force_join="true"
       miter_limit="4"
       offset="0"
       unit="mm"
       linejoin_type="miter"
       lpeversion="1"
       is_visible="true"
       id="path-effect863"
       effect="offset" />
    <inkscape:path-effect
       update_on_knot_move="true"
       attempt_force_join="true"
       miter_limit="4"
       offset="0.3"
       unit="mm"
       linejoin_type="miter"
       lpeversion="1"
       is_visible="true"
       id="path-effect857"
       effect="offset" />
  </defs>
  <sodipodi:namedview
     inkscape:window-maximized="1"
     inkscape:window-y="34"
     inkscape:window-x="0"
     inkscape:window-height="1378"
     inkscape:window-width="2560"
     units="px"
     fit-margin-bottom="0"
     fit-margin-right="0"
     fit-margin-left="0"
     fit-margin-top="0"
     inkscape:snap-page="true"
     showgrid="false"
     inkscape:document-rotation="0"
     inkscape:current-layer="layer1"
     inkscape:document-units="mm"
     inkscape:cy="27.651626"
     inkscape:cx="16.490517"
     inkscape:zoom="15.839192"
     inkscape:pageshadow="2"
     inkscape:pageopacity="0"
     borderopacity="1.0"
     bordercolor="#666666"
     pagecolor="#000000"
     id="base" />
  <metadata
     id="metadata5">
    <rdf:RDF>
      <cc:Work
         rdf:about="">
        <dc:format>image/svg+xml</dc:format>
        <dc:type
           rdf:resource="http://purl.org/dc/dcmitype/StillImage" />
        <dc:title></dc:title>
      </cc:Work>
    </rdf:RDF>
  </metadata>
  <g
     id="layer1"
     inkscape:groupmode="layer"
     inkscape:label="Layer 1">
    <circle
       r="6.7823291"
       cy="7.9374995"
       cx="7.9374995"
       id="circle843"
       style="fill:#ffffff;fill-opacity:0.17343447;stroke:none;stroke-width:0.469422;stroke-linecap:round;stroke-linejoin:round" />
    <circle
       style="fill:#ffffff;fill-opacity:0.17343447;stroke:none;stroke-width:0.469422;stroke-linecap:round;stroke-linejoin:round"
       id="circle845"
       cx="7.9374995"
       cy="8.9958324"
       r="6.7823291" />
    <circle
       r="6.7823291"
       cy="7.9374995"
       cx="8.9958324"
       id="circle847"
       style="fill:#ffffff;fill-opacity:0.17343447;stroke:none;stroke-width:0.469422;stroke-linecap:round;stroke-linejoin:round" />
    <circle
       style="fill:#ffffff;stroke:none;stroke-width:0.469422;stroke-linecap:round;stroke-linejoin:round;fill-opacity:0.17343447"
       id="circle837"
       cx="8.9958324"
       cy="8.9958324"
       r="6.7823291" />
    <path
       sodipodi:nodetypes="sssssss"
       d="m 15.498378,8.9177151 c 0,3.7457769 -3.820775,6.0773899 -7.5611653,6.2781899 C 5.4800328,15.327817 2.0909121,12.086818 1.6843371,8.4666662 1.4753093,6.6054788 2.2515976,4.2391054 3.6873255,3.2636511 5.9995271,1.6927079 6.5937777,1.6843371 8.4666662,1.6843371 c 1.8728888,0 3.3647568,1.0042282 4.7958308,1.9864982 1.189204,0.8162543 2.235881,3.3739914 2.235881,5.2468798 z"
       style="fill:#dfdfdf;fill-opacity:1;stroke:none;stroke-width:0.469422;stroke-linecap:round;stroke-linejoin:round"
       id="path835" />
    <g
       transform="matrix(0.88620099,0,0,0.88620099,0.81503683,0.83233532)"
       style="font-style:normal;font-variant:normal;font-weight:normal;font-stretch:normal;font-size:15.9324px;line-height:1.25;font-family:Comfortaa;-inkscape-font-specification:'Comfortaa, @wght=700';font-variant-ligatures:normal;font-variant-caps:normal;font-variant-numeric:normal;font-variant-east-asian:normal;font-variation-settings:'wght' 700;letter-spacing:0px;word-spacing:0px;fill:#4f83cf;fill-opacity:1;stroke:none;stroke-width:0.398311"
       id="text852"
       aria-label="c">
      <path
         sodipodi:nodetypes="sccsscsccccccssccssssccscccs"
         id="path854"
         style="font-style:normal;font-variant:normal;font-weight:normal;font-stretch:normal;font-size:15.9324px;font-family:Comfortaa;-inkscape-font-specification:'Comfortaa, @wght=700';font-variant-ligatures:normal;font-variant-caps:normal;font-variant-numeric:normal;font-variant-east-asian:normal;font-variation-settings:'wght' 700;fill:#4f83cf;fill-opacity:1;stroke-width:0.398311"
         d="m 8.5800781,3.5976562 c -0.9471236,0 -1.6207787,0.7024009 -2.2011719,1.0664063 -0.5753266,0.3510468 -1.5791374,0.5739692 -2.0019531,1.3574219 -0.393692,0.7294879 -0.53125,1.6944794 -0.53125,2.5703125 -1e-7,0.9285806 0.4186754,1.7528851 0.796875,2.4335941 0.4321806,0.756316 1.2101894,1.087669 1.8417969,1.470703 0.6383149,0.370635 1.3000191,0.865234 2.2421875,0.865234 1.2355523,0 2.2849205,-0.379675 3.1289065,-1.154297 0.196744,-0.178866 0.279606,-0.406979 0.246093,-0.669922 -0.02146,-0.242385 -0.131358,-0.447071 -0.310546,-0.611328 l -0.0059,-0.0059 -0.0078,-0.0059 c -0.179959,-0.14723 -0.390518,-0.221009 -0.623047,-0.203124 -0.2222,0.01709 -0.417634,0.112025 -0.587891,0.253906 l 0.103516,-0.05859 C 9.4118795,11.3555 10.03326,11.133381 9.7011719,11.244141 9.2655984,11.380257 9.0453611,11.722656 8.75,11.722656 c -0.5063876,0 -0.9151255,-0.287355 -1.40625,-0.582031 C 6.8857163,10.865805 6.492832,10.562383 6.2695312,10.142578 6.0573386,9.7436564 6.1777344,9.2824414 6.1777344,8.609375 6.1777344,7.8967547 5.8763339,7.2200422 6.0546875,6.8554688 6.2422557,6.4881479 6.8253909,6.4486277 7.3378906,6.1191406 7.8623737,5.789814 8.1370921,5.3496094 8.5800781,5.3496094 c 0.5651156,-1e-7 0.9776168,0.3758919 1.5019529,0.8515625 0,0 0.09421,0.1278953 0.658203,0.4160156 l -0.105468,-0.083984 c 0.144251,0.1731023 0.325598,0.3020008 0.548828,0.3535157 l 0.01367,0.00391 0.01367,0.00195 c 0.233112,0.033302 0.455695,-0.018899 0.644531,-0.15625 C 12.054522,6.5941458 12.203545,6.4078335 12.259766,6.1640625 12.318323,5.8907879 12.236888,5.6582134 12.054688,5.4570312 11.611501,4.9150516 11.092917,4.5020094 10.496094,4.2265625 9.9703449,3.979151 9.3175325,3.5976563 8.5800781,3.5976562 Z m 3.4746099,1.859375 c 0.0034,0.00416 0.0083,0.00559 0.01172,0.00977 l -0.01367,-0.015625 c 0.0015,0.00168 4.26e-4,0.00417 0.002,0.00586 z m 0.04687,6.0800778 c 4.65e-4,0.0052 0.0055,0.0084 0.0059,0.01367 l -0.002,-0.02539 c 6.53e-4,0.0046 -0.0045,0.0072 -0.0039,0.01172 z" />
    </g>
    <g
       aria-label="c"
       id="g873"
       style="font-style:normal;font-variant:normal;font-weight:normal;font-stretch:normal;font-size:15.9324px;line-height:1.25;font-family:Comfortaa;-inkscape-font-specification:'Comfortaa, @wght=700';font-variant-ligatures:normal;font-variant-caps:normal;font-variant-numeric:normal;font-variant-east-asian:normal;font-variation-settings:'wght' 700;letter-spacing:0px;word-spacing:0px;fill:#4f83cf;fill-opacity:0.104393;stroke:none;stroke-width:0.398311"
       transform="matrix(0.88620099,0,0,0.88620099,1.3048711,1.1265817)">
      <path
         d="m 8.5800781,3.5976562 c -0.9471236,0 -1.6207787,0.7024009 -2.2011719,1.0664063 -0.5753266,0.3510468 -1.5791374,0.5739692 -2.0019531,1.3574219 -0.393692,0.7294879 -0.53125,1.6944794 -0.53125,2.5703125 -1e-7,0.9285806 0.4186754,1.7528851 0.796875,2.4335941 0.4321806,0.756316 1.2101894,1.087669 1.8417969,1.470703 0.6383149,0.370635 1.3000191,0.865234 2.2421875,0.865234 1.2355523,0 2.2849205,-0.379675 3.1289065,-1.154297 0.196744,-0.178866 0.279606,-0.406979 0.246093,-0.669922 -0.02146,-0.242385 -0.131358,-0.447071 -0.310546,-0.611328 l -0.0059,-0.0059 -0.0078,-0.0059 c -0.179959,-0.14723 -0.390518,-0.221009 -0.623047,-0.203124 -0.2222,0.01709 -0.417634,0.112025 -0.587891,0.253906 l 0.103516,-0.05859 C 9.4118795,11.3555 10.03326,11.133381 9.7011719,11.244141 9.2655984,11.380257 9.0453611,11.722656 8.75,11.722656 c -0.5063876,0 -0.9151255,-0.287355 -1.40625,-0.582031 C 6.8857163,10.865805 6.492832,10.562383 6.2695312,10.142578 6.0573386,9.7436564 6.1777344,9.2824414 6.1777344,8.609375 6.1777344,7.8967547 5.8763339,7.2200422 6.0546875,6.8554688 6.2422557,6.4881479 6.8253909,6.4486277 7.3378906,6.1191406 7.8623737,5.789814 8.1370921,5.3496094 8.5800781,5.3496094 c 0.5651156,-1e-7 0.9776168,0.3758919 1.5019529,0.8515625 0,0 0.09421,0.1278953 0.658203,0.4160156 l -0.105468,-0.083984 c 0.144251,0.1731023 0.325598,0.3020008 0.548828,0.3535157 l 0.01367,0.00391 0.01367,0.00195 c 0.233112,0.033302 0.455695,-0.018899 0.644531,-0.15625 0.199057,-0.1421834 0.34808,-0.3284957 0.404301,-0.5722667 C 12.318323,5.8907879 12.236888,5.6582134 12.054688,5.4570312 11.611501,4.9150516 11.092917,4.5020094 10.496094,4.2265625 9.9703449,3.979151 9.3175325,3.5976563 8.5800781,3.5976562 Z m 3.4746099,1.859375 c 0.0034,0.00416 0.0083,0.00559 0.01172,0.00977 l -0.01367,-0.015625 c 0.0015,0.00168 4.26e-4,0.00417 0.002,0.00586 z m 0.04687,6.0800778 c 4.65e-4,0.0052 0.0055,0.0084 0.0059,0.01367 l -0.002,-0.02539 c 6.53e-4,0.0046 -0.0045,0.0072 -0.0039,0.01172 z"
         style="font-style:normal;font-variant:normal;font-weight:normal;font-stretch:normal;font-size:15.9324px;font-family:Comfortaa;-inkscape-font-specification:'Comfortaa, @wght=700';font-variant-ligatures:normal;font-variant-caps:normal;font-variant-numeric:normal;font-variant-east-asian:normal;font-variation-settings:'wght' 700;fill:#4f83cf;fill-opacity:0.104393;stroke-width:0.398311"
         id="path871"
         sodipodi:nodetypes="sccsscsccccccssccssssccscccs" />
    </g>
    <g
       transform="matrix(0.88620099,0,0,0.88620099,0.76531813,0.58875683)"
       style="font-style:normal;font-variant:normal;font-weight:normal;font-stretch:normal;font-size:15.9324px;line-height:1.25;font-family:Comfortaa;-inkscape-font-specification:'Comfortaa, @wght=700';font-variant-ligatures:normal;font-variant-caps:normal;font-variant-numeric:normal;font-variant-east-asian:normal;font-variation-settings:'wght' 700;letter-spacing:0px;word-spacing:0px;fill:#5789d1;fill-opacity:0.104393;stroke:none;stroke-width:0.398311"
       id="g877"
       aria-label="c">
      <path
         sodipodi:nodetypes="sccsscsccccccssccssssccscccs"
         id="path875"
         style="font-style:normal;font-variant:normal;font-weight:normal;font-stretch:normal;font-size:15.9324px;font-family:Comfortaa;-inkscape-font-specification:'Comfortaa, @wght=700';font-variant-ligatures:normal;font-variant-caps:normal;font-variant-numeric:normal;font-variant-east-asian:normal;font-variation-settings:'wght' 700;fill:#5789d1;fill-opacity:0.104393;stroke-width:0.398311"
         d="m 8.5800781,3.5976562 c -0.9471236,0 -1.6207787,0.7024009 -2.2011719,1.0664063 -0.5753266,0.3510468 -1.5791374,0.5739692 -2.0019531,1.3574219 -0.393692,0.7294879 -0.53125,1.6944794 -0.53125,2.5703125 -1e-7,0.9285806 0.4186754,1.7528851 0.796875,2.4335941 0.4321806,0.756316 1.2101894,1.087669 1.8417969,1.470703 0.6383149,0.370635 1.3000191,0.865234 2.2421875,0.865234 1.2355523,0 2.2849205,-0.379675 3.1289065,-1.154297 0.196744,-0.178866 0.279606,-0.406979 0.246093,-0.669922 -0.02146,-0.242385 -0.131358,-0.447071 -0.310546,-0.611328 l -0.0059,-0.0059 -0.0078,-0.0059 c -0.179959,-0.14723 -0.390518,-0.221009 -0.623047,-0.203124 -0.2222,0.01709 -0.417634,0.112025 -0.587891,0.253906 l 0.103516,-0.05859 C 9.4118795,11.3555 10.03326,11.133381 9.7011719,11.244141 9.2655984,11.380257 9.0453611,11.722656 8.75,11.722656 c -0.5063876,0 -0.9151255,-0.287355 -1.40625,-0.582031 C 6.8857163,10.865805 6.492832,10.562383 6.2695312,10.142578 6.0573386,9.7436564 6.1777344,9.2824414 6.1777344,8.609375 6.1777344,7.8967547 5.8763339,7.2200422 6.0546875,6.8554688 6.2422557,6.4881479 6.8253909,6.4486277 7.3378906,6.1191406 7.8623737,5.789814 8.1370921,5.3496094 8.5800781,5.3496094 c 0.5651156,-1e-7 0.9776168,0.3758919 1.5019529,0.8515625 0,0 0.09421,0.1278953 0.658203,0.4160156 l -0.105468,-0.083984 c 0.144251,0.1731023 0.325598,0.3020008 0.548828,0.3535157 l 0.01367,0.00391 0.01367,0.00195 c 0.233112,0.033302 0.455695,-0.018899 0.644531,-0.15625 0.199057,-0.1421834 0.34808,-0.3284957 0.404301,-0.5722667 C 12.318323,5.8907879 12.236888,5.6582134 12.054688,5.4570312 11.611501,4.9150516 11.092917,4.5020094 10.496094,4.2265625 9.9703449,3.979151 9.3175325,3.5976563 8.5800781,3.5976562 Z m 3.4746099,1.859375 c 0.0034,0.00416 0.0083,0.00559 0.01172,0.00977 l -0.01367,-0.015625 c 0.0015,0.00168 4.26e-4,0.00417 0.002,0.00586 z m 0.04687,6.0800778 c 4.65e-4,0.0052 0.0055,0.0084 0.0059,0.01367 l -0.002,-0.02539 c 6.53e-4,0.0046 -0.0045,0.0072 -0.0039,0.01172 z" />
    </g>
    <path
       id="path882"
       style="font-variation-settings:'wght' 700;opacity:0.99;fill:#4f83cd;fill-opacity:0.13854499;stroke:none;stroke-width:0.585999;stroke-linecap:round;stroke-linejoin:round"
       d="M 9.9863557,8.5270181 C 10.033758,8.8177902 10.024237,9.140335 9.8348054,9.2606423 9.6216987,9.3959861 9.3412829,9.4588124 9.0924183,9.443786 8.8205148,9.4273685 8.5459261,9.288808 8.442379,9.1702457 8.2763148,8.9801008 8.2296014,8.72433 8.2276088,8.4804758 8.2253829,8.2080862 8.3464695,8.0278602 8.433624,7.8493491 8.5443833,7.6224906 8.8172334,7.5591948 9.08757,7.5257411 9.4334592,7.4829379 9.6599014,7.667786 9.8359553,7.8487208 10.04417,8.0627076 9.9425268,8.2581686 9.9863557,8.5270181 Z"
       sodipodi:nodetypes="sssssssss" />
    <path
       sodipodi:nodetypes="sssssssss"
       d="M 9.7227605,8.450897 C 9.7701632,8.7416691 9.7606413,9.0642139 9.5712102,9.1845212 9.3581035,9.319865 9.0776877,9.3826913 8.8288231,9.3676649 8.5569196,9.3512474 8.2823309,9.2126869 8.1787838,9.0941246 8.0127196,8.9039797 7.9660062,8.6482089 7.9640136,8.4043547 7.9617877,8.1319651 8.0828743,7.9517391 8.1700288,7.773228 8.2807881,7.5463695 8.5536382,7.4830737 8.8239748,7.44962 9.169864,7.4068168 9.3963062,7.5916649 9.5723601,7.7725997 9.7805743,7.9865865 9.6789316,8.1820475 9.7227605,8.450897 Z"
       style="font-variation-settings:'wght' 700;opacity:0.99;fill:#5084cf;fill-opacity:1;stroke:none;stroke-width:0.585999;stroke-linecap:round;stroke-linejoin:round"
       id="path879" />
    <path
       sodipodi:nodetypes="sssssssss"
       d="M 9.5630548,8.3810982 C 9.6104571,8.6718703 9.6009361,8.9944151 9.4115045,9.1147224 9.1983978,9.2500662 8.917982,9.3128925 8.6691174,9.2978661 8.3972139,9.2814486 8.1226252,9.1428881 8.0190781,9.0243258 7.8530139,8.8341809 7.8063005,8.5784101 7.8043079,8.3345559 7.802082,8.0621663 7.9231686,7.8819403 8.0103231,7.7034292 8.1210824,7.4765707 8.3939325,7.4132749 8.6642691,7.3798212 9.0101583,7.337018 9.2366005,7.5218661 9.4126544,7.7028009 9.6208691,7.9167877 9.5192259,8.1122487 9.5630548,8.3810982 Z"
       style="font-variation-settings:'wght' 700;opacity:0.99;fill:#4f83cd;fill-opacity:0.138545;stroke:none;stroke-width:0.585999;stroke-linecap:round;stroke-linejoin:round"
       id="path884" />
  </g>
</svg>
