<?xml version="1.0" encoding="UTF-8" standalone="no"?>
<svg
   xmlns:dc="http://purl.org/dc/elements/1.1/"
   xmlns:cc="http://creativecommons.org/ns#"
   xmlns:rdf="http://www.w3.org/1999/02/22-rdf-syntax-ns#"
   xmlns:svg="http://www.w3.org/2000/svg"
   xmlns="http://www.w3.org/2000/svg"
   xmlns:sodipodi="http://sodipodi.sourceforge.net/DTD/sodipodi-0.dtd"
   xmlns:inkscape="http://www.inkscape.org/namespaces/inkscape"
   sodipodi:docname="update.svg"
   inkscape:version="1.0 (4035a4fb49, 2020-05-01)"
   id="svg8"
   version="1.1"
   viewBox="0 0 54.407719 54.407719"
   height="54.407719mm"
   width="54.407719mm">
  <defs
     id="defs2" />
  <sodipodi:namedview
     inkscape:window-maximized="1"
     inkscape:window-y="34"
     inkscape:window-x="0"
     inkscape:window-height="1378"
     inkscape:window-width="2560"
     fit-margin-bottom="0"
     fit-margin-right="0"
     fit-margin-left="0"
     fit-margin-top="0"
     showgrid="false"
     inkscape:document-rotation="0"
     inkscape:current-layer="layer1"
     inkscape:document-units="mm"
     inkscape:cy="147.67166"
     inkscape:cx="71.878086"
     inkscape:zoom="1.4"
     inkscape:pageshadow="2"
     inkscape:pageopacity="0"
     borderopacity="1.0"
     bordercolor="#666666"
     pagecolor="#000000"
     id="base" />
  <metadata
     id="metadata5">
    <rdf:RDF>
      <cc:Work
         rdf:about="">
        <dc:format>image/svg+xml</dc:format>
        <dc:type
           rdf:resource="http://purl.org/dc/dcmitype/StillImage" />
        <dc:title></dc:title>
      </cc:Work>
    </rdf:RDF>
  </metadata>
  <g
     transform="translate(-8.1754189,-76.584099)"
     id="layer1"
     inkscape:groupmode="layer"
     inkscape:label="Layer 1">
    <path
       id="path847"
       d="m 33.863368,120.70327 c -5.373919,-0.74496 -9.935226,-3.745 -12.607595,-8.29213 -1.138474,-1.93717 -2.011781,-4.46046 -2.20721,-6.37748 l -0.06087,-0.59654 1.683848,-0.17093 c 0.926107,-0.0939 1.875305,-0.19143 2.109307,-0.21657 l 0.425483,-0.0457 0.06286,0.4921 c 0.255174,1.99661 1.093328,4.10599 2.25293,5.66995 2.559338,3.45179 6.194361,5.32566 10.358501,5.3399 2.685714,0.009 4.951546,-0.65508 7.106508,-2.08343 0.403473,-0.26743 0.898627,-0.63077 1.100362,-0.80745 l 0.366796,-0.32123 -1.997336,-2.00788 -1.997335,-2.00789 1.034506,-0.15283 c 0.568995,-0.0841 3.138964,-0.46267 5.711049,-0.84131 2.57211,-0.37865 4.774379,-0.71168 4.893916,-0.74009 0.202465,-0.048 0.213713,-0.0309 0.163428,0.25089 -0.02956,0.16629 -0.431769,2.81962 -0.893555,5.89603 -0.461785,3.07644 -0.849311,5.60489 -0.861177,5.6188 -0.01105,0.0133 -0.594732,-0.5572 -1.295284,-1.26914 -0.700574,-0.7119 -1.387098,-1.37588 -1.525603,-1.47552 l -0.251846,-0.18106 -0.619279,0.52632 c -1.966569,1.67134 -4.740259,2.99525 -7.493548,3.57672 -0.925491,0.19541 -1.406376,0.23833 -2.983146,0.26602 -1.03389,0.0177 -2.147993,-0.003 -2.475817,-0.0496 z m 14.720056,-17.80232 c -0.295316,-3.139293 -1.573706,-5.907899 -3.718014,-8.052231 -3.2091,-3.209076 -7.821705,-4.471586 -12.241175,-3.350514 -2.484198,0.630174 -4.908075,2.132378 -6.473333,4.011896 l -0.437569,0.525415 1.978788,1.971282 c 1.242439,1.237743 1.931369,1.987038 1.851376,2.013602 -0.07014,0.0234 -1.26218,0.21217 -2.64908,0.41993 -4.518674,0.67666 -6.720039,1.01002 -7.840098,1.18724 -0.605187,0.0957 -1.125064,0.14645 -1.155279,0.11244 -0.03022,-0.034 0.04036,-0.68056 0.15703,-1.43706 0.11645,-0.756484 0.506338,-3.376727 0.866295,-5.822726 0.359957,-2.446021 0.668969,-4.462435 0.686701,-4.480939 0.01765,-0.01765 0.699362,0.631411 1.514752,1.444222 0.815371,0.812834 1.509482,1.477854 1.542454,1.477854 0.03286,0 0.33625,-0.305041 0.67391,-0.677878 2.235749,-2.468517 5.570294,-4.350505 8.964059,-5.059175 7.758052,-1.619976 15.506864,2.225053 18.953493,9.404937 0.778384,1.621492 1.386239,3.821445 1.546358,5.596625 l 0.06242,0.69083 -1.91357,0.30343 c -1.05246,0.16695 -2.00188,0.32356 -2.109816,0.34815 -0.182614,0.0417 -0.2007,-9.9e-4 -0.25952,-0.62745 z"
       style="fill:#5485cc;fill-opacity:1;stroke-width:0.091697" />
  </g>
</svg>
