<?xml version="1.0" encoding="UTF-8" standalone="no"?>
<svg
   xmlns:dc="http://purl.org/dc/elements/1.1/"
   xmlns:cc="http://creativecommons.org/ns#"
   xmlns:rdf="http://www.w3.org/1999/02/22-rdf-syntax-ns#"
   xmlns:svg="http://www.w3.org/2000/svg"
   xmlns="http://www.w3.org/2000/svg"
   xmlns:sodipodi="http://sodipodi.sourceforge.net/DTD/sodipodi-0.dtd"
   xmlns:inkscape="http://www.inkscape.org/namespaces/inkscape"
   sodipodi:docname="wordpress.svg"
   inkscape:version="1.0 (4035a4fb49, 2020-05-01)"
   id="svg8774"
   version="1.1"
   viewBox="0 0 103.11428 103.11428"
   height="103.11428mm"
   width="103.11428mm">
  <defs
     id="defs8768">
    <inkscape:path-effect
       bendpath3-nodetypes="csc"
       bendpath1-nodetypes="csc"
       bendpath4="M 64.998458,87.176984 V 157.28407"
       bendpath3="m 64.998458,157.28407 c 16.820868,-1.02186 22.104656,0.72854 33.052768,0.87716 9.833384,0.1335 29.459114,-1.91315 37.029534,-0.87716"
       bendpath2="M 135.08076,87.176984 V 157.28407"
       bendpath1="m 64.998458,87.176984 c 5.882031,0.1503 12.195865,1.807947 16.819049,2.025426 4.39273,0.206629 48.662333,-0.234103 53.263253,-2.025426"
       xx="true"
       yy="true"
       lpeversion="1"
       is_visible="true"
       id="path-effect1056"
       effect="envelope" />
  </defs>
  <sodipodi:namedview
     inkscape:window-maximized="1"
     inkscape:window-y="34"
     inkscape:window-x="0"
     inkscape:window-height="1378"
     inkscape:window-width="2560"
     fit-margin-bottom="0"
     fit-margin-right="0"
     fit-margin-left="0"
     fit-margin-top="0"
     showgrid="false"
     inkscape:document-rotation="0"
     inkscape:current-layer="layer1"
     inkscape:document-units="mm"
     inkscape:cy="185.88399"
     inkscape:cx="334.1121"
     inkscape:zoom="0.98994949"
     inkscape:pageshadow="2"
     inkscape:pageopacity="0"
     borderopacity="1.0"
     bordercolor="#666666"
     pagecolor="#000000"
     id="base" />
  <metadata
     id="metadata8771">
    <rdf:RDF>
      <cc:Work
         rdf:about="">
        <dc:format>image/svg+xml</dc:format>
        <dc:type
           rdf:resource="http://purl.org/dc/dcmitype/StillImage" />
        <dc:title></dc:title>
      </cc:Work>
    </rdf:RDF>
  </metadata>
  <g
     transform="translate(-48.205803,-71.730446)"
     id="layer1"
     inkscape:groupmode="layer"
     inkscape:label="Layer 1">
    <path
       inkscape:original-d="m 73.476984,107.01241 c -1.207924,-0.093 -2.394624,-0.42083 -3.464818,-0.9573 -0.911049,-0.4567 -1.597742,-0.94932 -2.353393,-1.68831 -1.506164,-1.47294 -2.430162,-3.33766 -2.717344,-5.483867 -0.07426,-0.554994 -0.07426,-1.706022 0,-2.260993 0.227427,-1.699633 0.841589,-3.195866 1.865181,-4.543961 0.302011,-0.397761 1.230277,-1.33367 1.621861,-1.635215 1.35982,-1.047158 2.878811,-1.677049 4.599412,-1.907281 0.554985,-0.07426 1.706007,-0.07426 2.260988,0 1.127762,0.150909 2.031878,0.426438 3.019817,0.920293 0.89227,0.446036 1.596818,0.947822 2.318774,1.651457 0.820902,0.800062 1.38396,1.579556 1.880462,2.603293 0.636347,1.312095 0.920419,2.559544 0.920419,4.041899 0,1.468565 -0.280979,2.711595 -0.908487,4.019055 -0.457929,0.95413 -0.968007,1.68227 -1.716278,2.45004 -1.504655,1.54383 -3.388609,2.47883 -5.528411,2.74376 -0.480193,0.0595 -1.343893,0.0821 -1.798183,0.0472 z m 1.67251,-0.57422 c 1.050727,-0.1216 1.958289,-0.39297 2.917766,-0.87227 2.150664,-1.07436 3.743283,-2.96153 4.463672,-5.28923 0.225008,-0.727035 0.330708,-1.415861 0.352558,-2.297487 0.02269,-0.916823 -0.04136,-1.538201 -0.241243,-2.339029 -0.882212,-3.534665 -3.85872,-6.151638 -7.478346,-6.575049 -0.516985,-0.06047 -1.492597,-0.06065 -2.008025,-2.67e-4 -4.039253,0.472493 -7.212661,3.645902 -7.685163,7.685154 -0.06012,0.513908 -0.06012,1.491095 0,2.005015 0.124639,1.065461 0.401656,1.975883 0.903545,2.969463 0.412368,0.81638 0.939818,1.54165 1.605115,2.20714 1.394091,1.39448 3.194847,2.26941 5.156916,2.5056 0.498011,0.0601 1.499881,0.0604 2.013205,0.001 z m -1.393759,-0.71527 c -0.589919,-0.0406 -1.413143,-0.17676 -1.784329,-0.29516 l -0.127303,-0.0406 1.217704,-3.48439 c 0.669733,-1.91643 1.221876,-3.495066 1.226983,-3.508111 0.0051,-0.01301 0.573677,1.518627 1.263505,3.403651 0.689828,1.88504 1.258416,3.43792 1.263534,3.45085 0.01088,0.0274 -0.367459,0.15519 -0.721669,0.24357 -0.73798,0.18413 -1.671874,0.27606 -2.338425,0.23021 z m -3.375998,-0.94215 c -0.662525,-0.35144 -1.294857,-0.82388 -1.859761,-1.3895 -0.431578,-0.43211 -0.670925,-0.72382 -1.007811,-1.22828 -1.299583,-1.94604 -1.673779,-4.399294 -1.015259,-6.65606 0.07415,-0.254092 0.324483,-0.937078 0.37115,-1.012586 0.01064,-0.01728 0.8468,2.231435 1.858076,4.9971 1.011277,2.765666 1.873402,5.122546 1.915837,5.237526 0.04243,0.11496 0.067,0.20881 0.05458,0.20847 -0.01244,-2.7e-4 -0.15498,-0.0708 -0.316812,-0.15667 z m 7.678804,-0.18927 c 0.03166,-0.0905 0.59414,-1.68371 1.249978,-3.5405 0.655836,-1.85681 1.248742,-3.550213 1.31756,-3.763154 0.33412,-1.033718 0.560542,-2.238444 0.564616,-3.004139 l 0.0017,-0.294428 0.142297,0.278752 c 0.584166,1.14432 0.884383,2.673799 0.784256,3.995452 -0.08511,1.123353 -0.329189,2.035207 -0.80419,3.004317 -0.407313,0.83103 -0.883524,1.4926 -1.549431,2.15259 -0.496692,0.49228 -0.989645,0.87088 -1.649071,1.26654 l -0.115133,0.0691 0.05755,-0.16451 z m -7.345849,-6.215202 c -1.285316,-3.785449 -1.472111,-4.353185 -1.440219,-4.377418 0.0044,-0.0034 0.251648,-0.0137 0.54976,-0.02325 L 70.36425,93.95828 V 93.648557 93.33883 l -0.170346,0.0034 c -0.09369,0.0021 -0.73831,0.01457 -1.432479,0.02825 -0.694172,0.01369 -1.262131,0.01443 -1.262131,0.0017 0,-0.05036 0.334836,-0.503352 0.603988,-0.81713 1.306835,-1.523505 3.105703,-2.48023 5.14141,-2.734462 0.399438,-0.04989 1.429364,-0.04977 1.827373,2.14e-4 1.633558,0.205118 3.193995,0.898311 4.3432,1.929383 l 0.130938,0.117487 H 79.41314 c -0.24643,0 -0.646859,0.154506 -0.830734,0.320545 -0.304484,0.274946 -0.441132,0.618264 -0.439481,1.104188 0.0021,0.52956 0.127706,0.874769 0.621299,1.703484 0.528935,0.888047 0.697309,1.343117 0.750619,2.028691 0.04303,0.553304 -0.03319,1.222687 -0.216761,1.904807 -0.0344,0.127765 -0.31434,0.998569 -0.622109,1.935143 l -0.55958,1.70285 -1.417604,-4.18064 c -0.779684,-2.29936 -1.426014,-4.208522 -1.436282,-4.242594 -0.04168,-0.138254 0.0084,-0.153907 0.543965,-0.170349 l 0.504493,-0.01548 0.0089,-0.281791 c 0.0064,-0.201289 -0.0024,-0.290959 -0.03097,-0.31388 -0.02745,-0.02213 -0.39844,-0.02209 -1.19645,9e-5 -0.800692,0.02229 -1.506022,0.02229 -2.291965,-2.5e-5 -0.783886,-0.02223 -1.147648,-0.02229 -1.175142,-9.8e-5 -0.02843,0.02294 -0.0373,0.112626 -0.03097,0.313907 l 0.0089,0.28179 0.517771,0.01548 c 0.403891,0.01203 0.527856,0.02572 0.563602,0.06194 0.05206,0.05277 1.226299,3.247683 1.225669,3.334834 -2.69e-4,0.05334 -1.711897,5.232806 -1.737551,5.258286 -0.0066,0.006 -0.663569,-1.90712 -1.459946,-4.252561 z"
       inkscape:path-effect="#path-effect1056"
       id="path1024"
       d="m 97.221775,157.74249 c -1.9668,-0.20172 -3.91046,-0.6364 -5.808291,-1.23683 -2.090687,-0.66147 -4.161102,-1.53603 -6.115594,-2.53204 -0.372305,-0.1909 -0.743876,-0.38728 -1.11358,-0.58835 -0.138229,-0.0752 -0.27548,-0.15036 -0.411762,-0.22556 -0.642189,-0.35349 -1.26196,-0.70552 -1.869808,-1.066 -2.495814,-1.48989 -4.603582,-3.08654 -6.848861,-5.25361 -5.703155,-5.50442 -9.034723,-12.6057 -10.092226,-20.6786 -0.27411,-2.09262 -0.274507,-6.45333 -9.15e-4,-8.54545 0.824706,-6.30636 3.085713,-12.24539 6.860709,-16.98168 1.266651,-1.589222 4.492145,-4.422195 6.174226,-5.4563 1.25172,-0.769535 2.520556,-1.428539 3.851292,-2.055886 0.614071,-0.289023 1.246523,-0.57969 1.86255,-0.849984 0.504716,-0.22209 1.016453,-0.438587 1.524829,-0.639409 1.958593,-0.768914 4.004861,-1.391035 6.127092,-1.86273 0,0 10e-7,0 10e-7,0 1.338953,-0.297595 2.715486,-0.537149 4.130506,-0.719489 0.664138,-0.08558 1.560849,-0.148848 2.537027,-0.190709 2.08385,-0.08949 4.6237,-0.08665 6.03727,0.05089 1.52587,0.148486 2.93967,0.347989 4.29979,0.616516 2.44894,0.483527 4.72031,1.192752 7.12525,2.213728 0.67076,0.284766 1.31416,0.578571 1.93625,0.885762 2.50378,1.238653 4.6678,2.699112 6.86986,4.659363 0.3974,0.353758 0.779,0.708162 1.14627,1.065175 0,0 0,0 0,0 0.76058,0.740183 1.46173,1.49205 2.11369,2.270478 1.50135,1.8015 2.75793,3.74659 3.906,6.0626 0.0837,0.16878 0.16564,0.33742 0.24592,0.50599 0.91728,1.92781 1.61,3.80533 2.11113,5.76318 0.72554,2.87854 1.03087,5.67542 1.02909,8.93402 -0.002,3.23162 -0.30971,6.05362 -1.03458,8.93181 -0.50159,1.96919 -1.19375,3.86639 -2.11131,5.82946 -0.0658,0.14068 -0.13273,0.28152 -0.2008,0.42256 -1.1554,2.39398 -2.41484,4.40552 -3.95684,6.34762 -0.64939,0.81217 -1.34996,1.60969 -2.1173,2.41834 0,0 0,0 0,0 -0.15584,0.1641 -0.31444,0.3286 -0.47595,0.49374 -2.29376,2.34519 -4.84313,4.37644 -7.5485,6.04917 -2.80176,1.72832 -5.86875,3.15528 -9.04902,4.11906 -1.41003,0.42728 -2.85826,0.7685 -4.33791,1.00554 -1.62475,0.26044 -4.091738,0.38971 -5.963466,0.29859 0,0 0,0 0,0 -0.303798,-0.0148 -0.584076,-0.0353 -0.832042,-0.0607 0,0 3e-6,-2.6e-4 3e-6,-2.6e-4 z m 6.315945,-2.23089 c 1.67749,-0.24754 3.26593,-0.62061 4.80582,-1.11315 2.09004,-0.66859 4.11405,-1.56431 6.20332,-2.69757 0.98008,-0.53162 1.93373,-1.10303 2.85414,-1.70839 0,0 0,0 0,0 3.04521,-2.00893 5.76973,-4.44083 8.03033,-7.1997 0.75432,-0.92137 1.4605,-1.88115 2.11483,-2.87907 1.69739,-2.60654 3.03881,-5.42335 3.97884,-8.48046 0.0543,-0.1766 0.10669,-0.3526 0.15722,-0.52825 0,0 0,0 0,0 0.7362,-2.5606 1.07771,-5.03294 1.15351,-8.15367 0.084,-3.46379 -0.1448,-5.80916 -0.89086,-8.81891 -0.0815,-0.3289 -0.16792,-0.65537 -0.25915,-0.9795 0,0 0,0 0,0 -0.9187,-3.26172 -2.32049,-6.22354 -4.13086,-8.88661 -0.65345,-0.95623 -1.35924,-1.86793 -2.11165,-2.73157 0,0 -10e-6,-1e-5 -10e-6,-1e-5 -2.28042,-2.614467 -4.99239,-4.773416 -8.02237,-6.45156 -2.78223,-1.537015 -5.83963,-2.67493 -9.06806,-3.377669 0,0 0,0 0,0 -1.54727,-0.336706 -3.13902,-0.575386 -4.76487,-0.712786 -1.3668,-0.115494 -3.673641,-0.115653 -5.542455,-0.0335 -0.769181,0.03406 -1.479817,0.0828 -2.041739,0.14692 -1.572311,0.179158 -3.109893,0.448344 -4.602819,0.80116 -2.130021,0.503413 -4.189263,1.182098 -6.134638,2.012889 -0.510487,0.220196 -1.024448,0.456735 -1.529769,0.699086 -0.626646,0.299285 -1.264209,0.619497 -1.881378,0.940404 -4.339733,2.262117 -7.577486,4.960763 -10.209516,9.053653 -2.50753,3.8993 -4.152695,8.67987 -4.717559,13.68637 -0.218248,1.93425 -0.217697,5.64267 0.0011,7.57663 0.453939,4.01287 1.463235,7.47505 3.300959,11.21024 1.517537,3.08449 3.471974,5.81133 6.037475,8.34686 1.708817,1.68885 3.59119,3.17594 5.634944,4.50001 0.626212,0.40237 1.256764,0.78863 1.887632,1.15862 0.508746,0.2994 1.019892,0.58875 1.530551,0.86637 1.953564,1.05235 4.022084,1.96582 6.12557,2.65389 0,0 10e-7,0 10e-7,0 1.471617,0.48134 2.97998,0.85887 4.513319,1.10003 0.565135,0.0891 1.300157,0.15876 2.107899,0.19694 1.911478,0.091 4.078115,0.008 5.470265,-0.19755 0,0 0,-1.5e-4 0,-1.5e-4 z m -5.23629,-2.67157 c -0.0721,-0.006 -0.145127,-0.012 -0.218987,-0.0187 -2.215885,-0.19918 -5.078461,-0.82554 -6.459718,-1.34487 -0.0016,-5.9e-4 -0.138566,-0.0521 -0.140143,-0.0527 -0.01254,-0.005 -0.324945,-0.12228 -0.337484,-0.12699 0.116248,-0.31752 0.232234,-0.63534 0.34801,-0.95358 1.446248,-3.97482 2.87368,-8.04957 4.26866,-12.0915 0.848153,-2.45754 1.684232,-4.9029 2.353877,-6.86624 1.301118,-3.79168 2.183085,-6.34548 2.195495,-6.37763 0.019,-0.049 2.12965,5.70686 4.71767,12.79799 1.3214,3.62064 2.36757,6.46265 3.28856,8.94355 0.90377,2.43574 1.47767,3.95908 1.48765,3.98366 0.0284,0.0696 -0.62969,0.34928 -1.4745,0.64504 0,0 0,0 0,0 -0.3914,0.13699 -0.82231,0.27711 -1.24452,0.40137 -2.83008,0.83284 -6.23703,1.2639 -8.784571,1.06063 0,0 10e-7,-7e-5 10e-7,-7e-5 z m -12.682716,-4.12447 c -0.09154,-0.0523 -0.182968,-0.10521 -0.274267,-0.15862 -0.509685,-0.30186 -1.023079,-0.62143 -1.536563,-0.95671 -0.635107,-0.41284 -1.272565,-0.85034 -1.906095,-1.31113 -1.2534,-0.92051 -2.443361,-1.93059 -3.555669,-3.02714 -1.669273,-1.64558 -2.6073,-2.78379 -3.870258,-4.68632 -4.837184,-7.28681 -6.162899,-16.73973 -3.772349,-25.13452 0.275512,-0.96742 1.183771,-3.48111 1.362402,-3.76796 0.03934,-0.0634 3.127744,8.47276 7.077843,18.98769 0.973325,2.59093 1.859765,4.91108 2.754822,7.22412 0,0 0,0 10e-7,0 0.717967,1.83883 1.34288,3.46532 1.92558,5.01267 0.607809,1.62359 1.113499,3.01342 1.536455,4.19397 0,0 0,0 0,0 0.746286,2.05082 1.200558,3.32263 1.257733,3.4809 0.158498,0.43872 0.249077,0.79501 0.201919,0.79122 -0.04727,-0.004 -0.586855,-0.29664 -1.201554,-0.64817 z m 28.885746,-0.67864 c 0.0882,-0.25506 1.26773,-3.63536 2.89126,-8.2213 0,0 0,0 0,0 0.0242,-0.0687 1.83736,-5.20013 1.86159,-5.26885 2.51202,-7.09684 4.74755,-13.43544 5.02159,-14.27752 0.43839,-1.34689 0.8283,-2.76834 1.15197,-4.16947 0.61571,-2.66765 0.99308,-5.26327 1.00545,-7.13691 -0.006,0.91659 0.0142,-2.0152 0.008,-1.09862 -0.004,-0.007 0.54451,1.03143 0.54093,1.02466 0.19583,0.37147 0.38315,0.75483 0.56169,1.14866 0,0 0,0 0,0 1.8392,4.07795 2.74789,9.25079 2.40233,13.80907 -0.28204,3.72006 -1.02022,6.80432 -2.40744,9.99186 0,0 0,0 0,0 -0.19921,0.45495 -0.41175,0.91131 -0.63823,1.37132 -0.46294,0.94032 -0.9494,1.82347 -1.47145,2.66797 0,0 0,0 0,0 -1.22851,1.98553 -2.65348,3.7495 -4.43527,5.53622 -1.15816,1.16137 -2.30798,2.16656 -3.59867,3.13598 -0.82271,0.61563 -1.70128,1.21728 -2.67353,1.83693 -0.001,8.3e-4 -0.43543,0.27794 -0.43673,0.27877 6.4e-4,-0.002 0.21662,-0.62686 0.21726,-0.62871 0,0 -5e-4,-6e-5 -5e-4,-6e-5 z M 86.919917,124.72309 c -0.566321,-1.6495 -1.092243,-3.17444 -1.552091,-4.50488 0,0 0,0 0,0 -0.579082,-1.705 -1.11313,-3.23645 -1.550824,-4.47949 0,0 0,0 0,0 -0.918375,-2.5924 -1.538234,-4.29972 -1.931901,-5.41855 -0.547116,-1.56879 -0.651917,-1.97728 -0.597394,-2.0127 0.0083,-0.005 0.232639,-0.006 0.595093,-0.004 1.176014,0.004 0.429701,0.002 1.605716,0.006 0.0063,2e-5 0.315413,6.7e-4 0.321734,6.9e-4 0.531443,5.7e-4 1.035729,-7.1e-4 1.548463,-0.002 -5.56e-4,0 0.217781,-2.2e-4 0.217224,-2.2e-4 2.8e-5,0.0151 -0.0023,-1.14708 -0.0023,-1.13198 3.1e-5,0.0139 -0.0028,-1.14317 -0.0028,-1.1293 -4.01e-4,0 -0.216759,-0.002 -0.21716,-0.002 -0.06497,-6.7e-4 -0.365233,-0.004 -0.430207,-0.004 -0.06798,-5.3e-4 -0.584656,-0.005 -1.117794,-0.0123 -0.496923,-0.007 -1.187276,-0.0176 -1.926069,-0.0376 0,0 -10e-7,0 -10e-7,0 -0.83416,-0.0246 -1.685271,-0.0574 -2.615587,-0.0974 -2.719526,-0.11693 -4.845939,-0.25067 -4.846004,-0.29792 -2.55e-4,-0.1869 1.262841,-1.78786 2.295899,-2.86276 1.535824,-1.59803 3.230664,-2.904648 5.150955,-4.074543 0.624171,-0.378883 1.265335,-0.748973 1.9011,-1.095215 0.508057,-0.278207 1.023553,-0.547531 1.53551,-0.798672 1.940583,-0.938799 4.003893,-1.69347 6.144433,-2.254226 0,0 10e-7,0 10e-7,0 1.592211,-0.417057 3.237355,-0.729431 4.921826,-0.934427 0.416088,-0.05064 1.017133,-0.08932 1.696583,-0.117251 0,0 10e-7,0 10e-7,0 1.739674,-0.07021 4.118074,-0.07523 5.172354,0.02587 1.7294,0.165803 3.44024,0.458576 5.10107,0.872409 3.27695,0.816915 6.38269,2.113494 9.07555,3.844827 0.79201,0.510885 1.54864,1.059804 2.26419,1.645936 -0.004,-0.0036 0.50263,0.412016 0.49819,0.408376 0.0108,-4.6e-4 -0.5176,0.0221 -0.50678,0.0216 -0.63109,0.0269 -1.52862,0.32058 -2.26013,0.70218 -0.3572,0.18559 -0.6754,0.39222 -0.90511,0.59979 -1.1626,1.05052 -1.68476,2.32478 -1.6802,4.11031 0.006,1.95024 0.48323,3.19943 2.36616,6.21499 0.0719,0.11522 0.14214,0.22849 0.21064,0.33992 1.8466,3.01638 2.45044,4.67555 2.64546,7.14418 0.16344,2.06862 -0.12744,4.58954 -0.82694,7.17322 -0.11054,0.40811 -0.88277,2.80909 -1.8226,5.68474 0,0 0,1e-5 0,1e-5 0.003,-0.008 -0.55061,1.67341 -0.54786,1.66504 -0.70951,2.1511 -1.42617,4.32983 -2.13241,6.48734 -1.81574,-5.23731 -3.57781,-10.36369 -5.37586,-15.59264 -0.43578,-1.26731 -0.59813,-1.73952 -1.03391,-3.00683 0,0 0,0 0,0 -2.45545,-7.13586 -4.33025,-12.55097 -4.36406,-12.66067 -0.15683,-0.50861 0.0313,-0.56228 2.04007,-0.67094 0.63183,-0.0342 1.26438,-0.0696 1.89817,-0.10611 -3.1e-4,0.01 0.0345,-1.0466 0.0342,-1.03703 0.0246,-0.73999 -0.008,-1.06763 -0.11586,-1.14865 -0.10338,-0.0782 -1.50692,-0.0294 -4.49268,0.10605 -1.81709,0.0825 -3.510994,0.11983 -5.199125,0.11198 -1.08279,-0.003 -2.181724,-0.0266 -3.327807,-0.069 -1.48128,-0.0547 -2.490768,-0.092 -3.246051,-0.10628 -0.736365,-0.0139 -1.111189,-0.002 -1.163714,0.0377 -0.107203,0.0814 -0.139605,0.40731 -0.113851,1.14301 3.51e-4,0.01 0.03564,1.02127 0.03599,1.03128 0.416645,0.0211 0.832367,0.0417 1.247239,0.0617 -0.0049,-2.4e-4 0.707877,0.0335 0.702994,0.0333 1.516856,0.0704 1.976709,0.1233 2.110329,0.25767 0.141807,0.14266 2.505062,6.45415 3.762337,10.02459 0.470702,1.33003 0.791148,2.27459 0.790527,2.36308 -2.13e-4,0.044 -0.308599,1.0192 -0.789715,2.51731 0,0 0,0 0,0 -1.693232,5.30444 -5.600751,17.15525 -5.675934,17.2279 -0.009,0.008 -0.334935,-0.94874 -0.891644,-2.59525 -1.185149,-3.50588 -2.477355,-7.33615 -4.627197,-13.59788 0,0 -4.62e-4,2e-5 -4.62e-4,2e-5 z"
       style="fill:#5485cc;fill-opacity:1;stroke-width:0.0309724" />
  </g>
</svg>
